<?xml version="1.0" encoding="UTF-8" standalone="no"?>
<!DOCTYPE svg PUBLIC "-//W3C//DTD SVG 1.1//EN" "http://www.w3.org/Graphics/SVG/1.1/DTD/svg11.dtd">
<svg width="100%" height="100%" viewBox="0 0 1000 1000" version="1.1" xmlns="http://www.w3.org/2000/svg" xmlns:xlink="http://www.w3.org/1999/xlink" xml:space="preserve" xmlns:serif="http://www.serif.com/" style="fill-rule:evenodd;clip-rule:evenodd;stroke-linejoin:round;stroke-miterlimit:2;">
    <g id="Question">
        <g transform="matrix(1.438672,0,0,1.438672,-233.058102,-162.635428)">
            <path d="M550,525L550,525ZM550,525L550,552.778C550,580.374 527.596,602.778 500,602.778C472.404,602.778 450,580.374 450,552.778L450,525C450,493.524 464.819,463.885 490,445L540.506,407.121C558.485,393.636 569.066,372.474 569.066,350C569.066,327.526 558.484,306.363 540.505,292.879C519.956,277.467 491.201,279.51 473.037,297.673L435.355,335.355C415.842,354.868 384.158,354.868 364.645,335.355C345.132,315.842 345.132,284.158 364.645,264.645L402.327,226.963C455.679,173.61 540.144,167.608 600.505,212.879C643.665,245.249 669.066,296.05 669.066,350C669.066,403.95 643.665,454.751 600.506,487.121L550,525Z" style="fill:rgb(240,240,240);"/>
        </g>
        <g transform="matrix(1.438672,0,0,1.438672,-233.058102,-250.937898)">
            <circle cx="500" cy="750" r="50" style="fill:rgb(240,240,240);"/>
        </g>
    </g>
</svg>
