<?xml version="1.0" encoding="UTF-8" standalone="no"?>
<!DOCTYPE svg PUBLIC "-//W3C//DTD SVG 1.1//EN" "http://www.w3.org/Graphics/SVG/1.1/DTD/svg11.dtd">
<svg width="100%" height="100%" viewBox="0 0 1000 1000" version="1.1" xmlns="http://www.w3.org/2000/svg" xmlns:xlink="http://www.w3.org/1999/xlink" xml:space="preserve" xmlns:serif="http://www.serif.com/" style="fill-rule:evenodd;clip-rule:evenodd;stroke-linejoin:round;stroke-miterlimit:2;">
    <path d="M535.355,135.355C525.979,125.979 513.261,120.711 500,120.711C486.739,120.711 474.021,125.979 464.645,135.355C388.796,211.204 211.204,388.796 135.355,464.645C125.979,474.021 120.711,486.739 120.711,500C120.711,513.261 125.979,525.979 135.355,535.355C152.542,552.542 172.261,572.261 185.355,585.355C194.732,594.732 200,607.45 200,620.711C200,667.633 200,783.15 200,850C200,863.261 205.268,875.979 214.645,885.355C224.021,894.732 236.739,900 250,900L750,900C763.261,900 775.979,894.732 785.355,885.355C794.732,875.979 800,863.261 800,850L800,620.711C800,607.45 805.268,594.732 814.645,585.355C827.739,572.261 847.458,552.542 864.645,535.355C874.021,525.979 879.289,513.261 879.289,500C879.289,486.739 874.021,474.021 864.645,464.645C788.796,388.796 611.204,211.204 535.355,135.355Z" style="fill:rgb(240,240,240);"/>
</svg>
