<?xml version="1.0" encoding="UTF-8" standalone="no"?>
<!DOCTYPE svg PUBLIC "-//W3C//DTD SVG 1.1//EN" "http://www.w3.org/Graphics/SVG/1.1/DTD/svg11.dtd">
<svg width="100%" height="100%" viewBox="0 0 1000 1000" version="1.1" xmlns="http://www.w3.org/2000/svg" xmlns:xlink="http://www.w3.org/1999/xlink" xml:space="preserve" xmlns:serif="http://www.serif.com/" style="fill-rule:evenodd;clip-rule:evenodd;stroke-linecap:round;stroke-linejoin:round;stroke-miterlimit:15;">
    <g id="Rendered-View" serif:id="Rendered View">
        <path d="M500,100C720.766,100 900,279.234 900,500C900,720.766 720.766,900 500,900C279.234,900 100,720.766 100,500C100,279.234 279.234,100 500,100ZM500,200C334.425,200 200,334.425 200,500C200,665.575 334.425,800 500,800C665.575,800 800,665.575 800,500C800,334.425 665.575,200 500,200Z" style="fill:rgb(240,240,240);"/>
        <path d="M550,300C633.225,313.215 683.145,363.304 700,450" style="fill:none;stroke:rgb(240,240,240);stroke-width:100px;"/>
    </g>
</svg>
