<?xml version="1.0" encoding="UTF-8" standalone="no"?>
<!DOCTYPE svg PUBLIC "-//W3C//DTD SVG 1.1//EN" "http://www.w3.org/Graphics/SVG/1.1/DTD/svg11.dtd">
<svg width="100%" height="100%" viewBox="0 0 1000 1000" version="1.1" xmlns="http://www.w3.org/2000/svg" xmlns:xlink="http://www.w3.org/1999/xlink" xml:space="preserve" xmlns:serif="http://www.serif.com/" style="fill-rule:evenodd;clip-rule:evenodd;stroke-linejoin:round;stroke-miterlimit:2;">
    <g id="Sun" transform="matrix(1.125,0,0,1.125,-62.5,-62.5)">
        <path d="M463.425,152.98C471.722,140.961 485.395,133.786 500,133.786C514.605,133.786 528.278,140.961 536.575,152.98C553.882,178.05 573.675,206.721 587.231,226.356C597.165,240.746 614.614,247.974 631.814,244.823C655.284,240.524 689.553,234.246 719.517,228.757C733.883,226.126 748.625,230.72 758.953,241.047C769.28,251.375 773.874,266.117 771.243,280.483C765.754,310.447 759.476,344.716 755.177,368.186C752.026,385.386 759.254,402.835 773.644,412.769C793.279,426.325 821.95,446.118 847.02,463.425C859.039,471.722 866.214,485.395 866.214,500C866.214,514.605 859.039,528.278 847.02,536.575C821.95,553.882 793.279,573.675 773.644,587.231C759.254,597.165 752.026,614.614 755.177,631.814C759.476,655.284 765.754,689.553 771.243,719.517C773.874,733.883 769.28,748.625 758.953,758.953C748.625,769.28 733.883,773.874 719.517,771.243C689.553,765.754 655.284,759.476 631.814,755.177C614.614,752.026 597.165,759.254 587.231,773.644C573.675,793.279 553.882,821.95 536.575,847.02C528.278,859.039 514.605,866.214 500,866.214C485.395,866.214 471.722,859.039 463.425,847.02C446.118,821.95 426.325,793.279 412.769,773.644C402.835,759.254 385.386,752.026 368.186,755.177C344.716,759.476 310.447,765.754 280.483,771.243C266.117,773.874 251.375,769.28 241.047,758.953C230.72,748.625 226.126,733.883 228.757,719.517C234.246,689.553 240.524,655.284 244.823,631.814C247.974,614.614 240.746,597.165 226.356,587.231C206.721,573.675 178.05,553.882 152.98,536.575C140.961,528.278 133.786,514.605 133.786,500C133.786,485.395 140.961,471.722 152.98,463.425C178.05,446.118 206.721,426.325 226.356,412.769C240.746,402.835 247.974,385.386 244.823,368.186C240.524,344.716 234.246,310.447 228.757,280.483C226.126,266.117 230.72,251.375 241.047,241.047C251.375,230.72 266.117,226.126 280.483,228.757C310.447,234.246 344.716,240.524 368.186,244.823C385.386,247.974 402.835,240.746 412.769,226.356C426.325,206.721 446.118,178.05 463.425,152.98Z" style="fill:rgb(240,240,240);"/>
    </g>
</svg>
